<mxfile host="app.diagrams.net" modified="2022-04-24T07:12:47.630Z" agent="5.0 (Windows NT 10.0; Win64; x64) AppleWebKit/537.36 (KHTML, like Gecko) Chrome/100.0.4896.127 Safari/537.36" etag="9qLzrt3QKZbbB2XmMidj" version="17.4.6" type="github">
  <diagram id="tuGTb30qhN7oNjHGDxhl" name="Page-1">
    <mxGraphModel dx="5806" dy="3325" grid="1" gridSize="10" guides="1" tooltips="1" connect="1" arrows="1" fold="1" page="1" pageScale="1" pageWidth="827" pageHeight="1169" math="0" shadow="0">
      <root>
        <mxCell id="0" />
        <mxCell id="1" parent="0" />
        <UserObject label="" lucidchartObjectId="i5J2r0WwPXJn" id="prS6bFnsUC1DCDPSDWHU-3">
          <mxCell style="html=1;overflow=block;blockSpacing=1;whiteSpace=wrap;container=1;pointerEvents=0;collapsible=0;recursiveResize=0;fontSize=33.3;fontColor=#383a3d;fontStyle=1;spacing=0;strokeColor=#383a3d;strokeOpacity=100;fillOpacity=100;rounded=1;absoluteArcSize=1;arcSize=9;fillColor=none;strokeWidth=5.3;" vertex="1" parent="1">
            <mxGeometry x="-733" y="-580" width="1408" height="1183" as="geometry" />
          </mxCell>
        </UserObject>
        <UserObject label="" lucidchartObjectId="i5J2LGmcpR4K" id="prS6bFnsUC1DCDPSDWHU-34">
          <mxCell style="html=1;jettySize=18;whiteSpace=wrap;fontSize=13;strokeColor=#383a3d;strokeOpacity=100;dashed=1;fixDash=1;dashPattern=6 5;strokeWidth=2.3;rounded=0;startArrow=none;endArrow=block;endFill=1;exitX=0.5;exitY=-0.023;exitPerimeter=0;entryX=0.5;entryY=1.009;entryPerimeter=0;exitDx=0;exitDy=0;entryDx=0;entryDy=0;" edge="1" parent="prS6bFnsUC1DCDPSDWHU-3">
            <mxGeometry width="100" height="100" relative="1" as="geometry">
              <Array as="points" />
              <mxPoint x="822.4999999999998" y="731.004" as="sourcePoint" />
              <mxPoint x="606" y="416.09999999999997" as="targetPoint" />
            </mxGeometry>
          </mxCell>
        </UserObject>
        <mxCell id="prS6bFnsUC1DCDPSDWHU-35" value="&amp;lt;&amp;lt;Include&amp;gt;&amp;gt;" style="text;html=1;resizable=0;labelBackgroundColor=none;align=center;verticalAlign=middle;fontStyle=1;fontColor=#383a3d;fontSize=11;" vertex="1" parent="prS6bFnsUC1DCDPSDWHU-34">
          <mxGeometry x="0.3216789903860193" relative="1" as="geometry">
            <mxPoint x="73" y="95" as="offset" />
          </mxGeometry>
        </mxCell>
        <UserObject label="" lucidchartObjectId="i5J2Nt8LlwXT" id="prS6bFnsUC1DCDPSDWHU-67">
          <mxCell style="html=1;jettySize=18;whiteSpace=wrap;fontSize=13;strokeColor=#635dff;strokeOpacity=100;dashed=1;fixDash=1;dashPattern=6 5;strokeWidth=3.8;rounded=0;startArrow=none;endArrow=block;endFill=1;exitX=0.5;exitY=-0.029;exitPerimeter=0;entryX=0.5;entryY=1.009;entryPerimeter=0;exitDx=0;exitDy=0;entryDx=0;entryDy=0;" edge="1" parent="prS6bFnsUC1DCDPSDWHU-3">
            <mxGeometry width="100" height="100" relative="1" as="geometry">
              <Array as="points" />
              <mxPoint x="504.5" y="962.0000000000001" as="sourcePoint" />
              <mxPoint x="606" y="416.12999999999977" as="targetPoint" />
            </mxGeometry>
          </mxCell>
        </UserObject>
        <mxCell id="prS6bFnsUC1DCDPSDWHU-68" value="&amp;lt;&amp;lt;Include&amp;gt;&amp;gt;" style="text;html=1;resizable=0;labelBackgroundColor=none;align=center;verticalAlign=middle;fontStyle=1;fontColor=#4d0066;fontSize=11;fillColor=none;strokeColor=#000000;" vertex="1" parent="prS6bFnsUC1DCDPSDWHU-67">
          <mxGeometry x="0.46368940219610844" relative="1" as="geometry">
            <mxPoint x="-23" y="136" as="offset" />
          </mxGeometry>
        </mxCell>
        <mxCell id="prS6bFnsUC1DCDPSDWHU-76" value="&lt;span style=&quot;color: rgb(56, 58, 61); font-family: helvetica; font-size: 33px; font-style: normal; font-weight: 700; letter-spacing: normal; text-align: center; text-indent: 0px; text-transform: none; word-spacing: 0px; background-color: rgb(248, 249, 250); display: inline; float: none;&quot;&gt;KNAPP&lt;/span&gt;" style="text;whiteSpace=wrap;html=1;fontSize=6;" vertex="1" parent="prS6bFnsUC1DCDPSDWHU-3">
          <mxGeometry x="32" y="18" width="140" height="30" as="geometry" />
        </mxCell>
        <UserObject label="KNAPP Use-Case Diagram :: Student View" lucidchartObjectId="aXx1Xl56Rm~Z" id="prS6bFnsUC1DCDPSDWHU-4">
          <mxCell style="html=1;overflow=block;blockSpacing=1;whiteSpace=wrap;fontSize=35.2;fontColor=#8b412b;fontStyle=1;spacing=3.8;strokeColor=none;fillOpacity=0;fillColor=#ffffff;strokeWidth=0;" vertex="1" parent="1">
            <mxGeometry x="-446" y="-807" width="735" height="176" as="geometry" />
          </mxCell>
        </UserObject>
        <UserObject label="Primary Actors" lucidchartObjectId="i5J22sx_i~vu" id="prS6bFnsUC1DCDPSDWHU-5">
          <mxCell style="html=1;overflow=block;blockSpacing=1;whiteSpace=wrap;fontSize=31.8;fontColor=#8b412b;fontStyle=1;spacing=0;fillColor=#ffffff;strokeWidth=1.5;strokeColor=none;" vertex="1" parent="1">
            <mxGeometry x="-1031" y="-665" width="167" height="17" as="geometry" />
          </mxCell>
        </UserObject>
        <UserObject label="Login" lucidchartObjectId="i5J2WdqwGF44" id="prS6bFnsUC1DCDPSDWHU-6">
          <mxCell style="html=1;overflow=block;blockSpacing=1;whiteSpace=wrap;ellipse;fontSize=41.8;fontColor=#383a3d;fontStyle=1;spacing=3.8;strokeColor=#383a3d;strokeOpacity=100;fillOpacity=100;rounded=1;absoluteArcSize=1;arcSize=9;fillColor=#c4c4c4;strokeWidth=5.3;" vertex="1" parent="1">
            <mxGeometry x="-371" y="-449" width="488" height="280" as="geometry" />
          </mxCell>
        </UserObject>
        <UserObject label="Admin" lucidchartObjectId="i5J2sJgldB~W" id="prS6bFnsUC1DCDPSDWHU-7">
          <mxCell style="html=1;overflow=block;blockSpacing=1;shape=umlActor;labelPosition=center;verticalLabelPosition=bottom;verticalAlign=top;whiteSpace=nowrap;fontSize=36.7;fontColor=#383a3d;fontStyle=1;spacing=0;strokeColor=#383a3d;strokeOpacity=100;fillOpacity=100;rounded=1;absoluteArcSize=1;arcSize=9;fillColor=#c4c4c4;strokeWidth=5.3;" vertex="1" parent="1">
            <mxGeometry x="846" y="-594" width="58" height="128" as="geometry" />
          </mxCell>
        </UserObject>
        <UserObject label="Student" lucidchartObjectId="i5J2KzIYBJLE" id="prS6bFnsUC1DCDPSDWHU-8">
          <mxCell style="html=1;overflow=block;blockSpacing=1;shape=umlActor;labelPosition=center;verticalLabelPosition=bottom;verticalAlign=top;whiteSpace=nowrap;fontSize=38.3;fontColor=#383a3d;fontStyle=1;spacing=0;strokeColor=#383a3d;strokeOpacity=100;fillOpacity=100;rounded=1;absoluteArcSize=1;arcSize=9;fillColor=#c4c4c4;strokeWidth=5.3;" vertex="1" parent="1">
            <mxGeometry x="-962" y="-486" width="58" height="128" as="geometry" />
          </mxCell>
        </UserObject>
        <UserObject label="Account Department Users" lucidchartObjectId="i5J2WwVUfcg6" id="prS6bFnsUC1DCDPSDWHU-9">
          <mxCell style="html=1;overflow=block;blockSpacing=1;shape=umlActor;labelPosition=center;verticalLabelPosition=bottom;verticalAlign=top;whiteSpace=nowrap;fontSize=16.7;fontColor=#383a3d;fontStyle=1;spacing=0;strokeColor=#383a3d;strokeOpacity=100;fillOpacity=100;rounded=1;absoluteArcSize=1;arcSize=9;fillColor=#c4c4c4;strokeWidth=5.3;" vertex="1" parent="1">
            <mxGeometry x="846" y="-387" width="58" height="128" as="geometry" />
          </mxCell>
        </UserObject>
        <UserObject label="Users Management" lucidchartObjectId="i5J2OQMUZJfZ" id="prS6bFnsUC1DCDPSDWHU-10">
          <mxCell style="html=1;overflow=block;blockSpacing=1;shape=umlActor;labelPosition=center;verticalLabelPosition=bottom;verticalAlign=top;whiteSpace=nowrap;fontSize=35;fontColor=#383a3d;fontStyle=1;spacing=0;strokeColor=#383a3d;strokeOpacity=100;fillOpacity=100;rounded=1;absoluteArcSize=1;arcSize=9;fillColor=#c4c4c4;strokeWidth=5.3;" vertex="1" parent="1">
            <mxGeometry x="846" y="-123" width="58" height="128" as="geometry" />
          </mxCell>
        </UserObject>
        <UserObject label="Bus Management Users" lucidchartObjectId="i5J2N9IyjPsl" id="prS6bFnsUC1DCDPSDWHU-11">
          <mxCell style="html=1;overflow=block;blockSpacing=1;shape=umlActor;labelPosition=center;verticalLabelPosition=bottom;verticalAlign=top;whiteSpace=nowrap;fontSize=35;fontColor=#383a3d;fontStyle=1;spacing=0;strokeColor=#383a3d;strokeOpacity=100;fillOpacity=100;rounded=1;absoluteArcSize=1;arcSize=9;fillColor=#c4c4c4;strokeWidth=5.3;" vertex="1" parent="1">
            <mxGeometry x="834" y="319" width="58" height="128" as="geometry" />
          </mxCell>
        </UserObject>
        <UserObject label="Notices" lucidchartObjectId="i5J2NRwnz2q1" id="prS6bFnsUC1DCDPSDWHU-12">
          <mxCell style="html=1;overflow=block;blockSpacing=1;whiteSpace=wrap;ellipse;fontSize=20.2;fontColor=#383a3d;fontStyle=1;spacing=3.8;strokeColor=#383a3d;strokeOpacity=100;fillOpacity=100;rounded=1;absoluteArcSize=1;arcSize=9;fillColor=#c4c4c4;strokeWidth=5.3;" vertex="1" parent="1">
            <mxGeometry x="-661" y="148" width="110" height="112" as="geometry" />
          </mxCell>
        </UserObject>
        <UserObject label="" lucidchartObjectId="i5J2I2ugxcQD" id="prS6bFnsUC1DCDPSDWHU-13">
          <mxCell style="html=1;jettySize=18;whiteSpace=wrap;fontSize=13;strokeColor=#383a3d;strokeOpacity=100;dashed=1;fixDash=1;dashPattern=6 5;strokeWidth=2.3;rounded=0;startArrow=none;endArrow=block;endFill=1;exitX=0.5;exitY=-0.023;exitPerimeter=0;entryX=0.5;entryY=1.009;entryPerimeter=0;exitDx=0;exitDy=0;entryDx=0;entryDy=0;" edge="1" parent="1" source="prS6bFnsUC1DCDPSDWHU-12" target="prS6bFnsUC1DCDPSDWHU-6">
            <mxGeometry width="100" height="100" relative="1" as="geometry">
              <Array as="points" />
            </mxGeometry>
          </mxCell>
        </UserObject>
        <mxCell id="prS6bFnsUC1DCDPSDWHU-14" value="&amp;lt;&amp;lt;Include&amp;gt;&amp;gt;" style="text;html=1;resizable=0;labelBackgroundColor=none;align=center;verticalAlign=middle;fontStyle=1;fontColor=#383a3d;fontSize=11;fillColor=none;strokeColor=#000000;" vertex="1" parent="prS6bFnsUC1DCDPSDWHU-13">
          <mxGeometry x="0.3216789903860193" relative="1" as="geometry">
            <mxPoint x="-212" y="139" as="offset" />
          </mxGeometry>
        </mxCell>
        <UserObject label="" lucidchartObjectId="i5J2FJeH-Jwk" id="prS6bFnsUC1DCDPSDWHU-15">
          <mxCell style="html=1;jettySize=18;whiteSpace=wrap;fontSize=13;strokeColor=#E45E2D;strokeWidth=3;rounded=0;startArrow=none;endArrow=none;exitX=0.455;exitY=0.434;exitPerimeter=0;entryX=1.005;entryY=0.5;entryPerimeter=0;" edge="1" parent="1" source="prS6bFnsUC1DCDPSDWHU-7" target="prS6bFnsUC1DCDPSDWHU-6">
            <mxGeometry width="100" height="100" relative="1" as="geometry">
              <Array as="points" />
            </mxGeometry>
          </mxCell>
        </UserObject>
        <UserObject label="" lucidchartObjectId="i5J2minD-1GO" id="prS6bFnsUC1DCDPSDWHU-16">
          <mxCell style="html=1;jettySize=18;whiteSpace=wrap;fontSize=13;strokeColor=#E45E2D;strokeWidth=3;rounded=0;startArrow=none;endArrow=none;exitX=0.455;exitY=0.434;exitPerimeter=0;entryX=-0.005;entryY=0.5;entryPerimeter=0;" edge="1" parent="1" source="prS6bFnsUC1DCDPSDWHU-8" target="prS6bFnsUC1DCDPSDWHU-6">
            <mxGeometry width="100" height="100" relative="1" as="geometry">
              <Array as="points" />
            </mxGeometry>
          </mxCell>
        </UserObject>
        <UserObject label="" lucidchartObjectId="i5J2o3twJRjA" id="prS6bFnsUC1DCDPSDWHU-17">
          <mxCell style="html=1;jettySize=18;whiteSpace=wrap;fontSize=13;strokeColor=#E45E2D;strokeWidth=3;rounded=0;startArrow=none;endArrow=none;exitX=0.458;exitY=0.5;exitPerimeter=0;entryX=1.005;entryY=0.5;entryPerimeter=0;" edge="1" parent="1" source="prS6bFnsUC1DCDPSDWHU-9" target="prS6bFnsUC1DCDPSDWHU-6">
            <mxGeometry width="100" height="100" relative="1" as="geometry">
              <Array as="points" />
            </mxGeometry>
          </mxCell>
        </UserObject>
        <UserObject label="" lucidchartObjectId="i5J2n0~j3gAA" id="prS6bFnsUC1DCDPSDWHU-18">
          <mxCell style="html=1;jettySize=18;whiteSpace=wrap;fontSize=13;strokeColor=#e45e2d;strokeOpacity=100;strokeWidth=3;rounded=0;startArrow=none;endArrow=none;exitX=0.458;exitY=0.5;exitPerimeter=0;entryX=1.005;entryY=0.5;entryPerimeter=0;" edge="1" parent="1" source="prS6bFnsUC1DCDPSDWHU-10" target="prS6bFnsUC1DCDPSDWHU-6">
            <mxGeometry width="100" height="100" relative="1" as="geometry">
              <Array as="points" />
            </mxGeometry>
          </mxCell>
        </UserObject>
        <UserObject label="Login Account" lucidchartObjectId="i5J2KKicdyOx" id="prS6bFnsUC1DCDPSDWHU-19">
          <mxCell style="html=1;overflow=block;blockSpacing=1;whiteSpace=wrap;ellipse;fontSize=16.8;spacing=0;strokeColor=#383a3d;strokeOpacity=100;fillOpacity=100;rounded=1;absoluteArcSize=1;arcSize=9;fillColor=#a9afb8;strokeWidth=1.5;" vertex="1" parent="1">
            <mxGeometry x="297" y="-543" width="305" height="150" as="geometry" />
          </mxCell>
        </UserObject>
        <UserObject label="" lucidchartObjectId="i5J2RMb9hW4F" id="prS6bFnsUC1DCDPSDWHU-20">
          <mxCell style="html=1;jettySize=18;whiteSpace=wrap;fontSize=13;strokeColor=#383a3d;strokeOpacity=100;dashed=1;fixDash=1;strokeWidth=2.3;rounded=0;startArrow=none;endArrow=block;endFill=1;exitX=-0.002;exitY=0.5;exitPerimeter=0;entryX=1.005;entryY=0.5;entryPerimeter=0;" edge="1" parent="1" source="prS6bFnsUC1DCDPSDWHU-19" target="prS6bFnsUC1DCDPSDWHU-6">
            <mxGeometry width="100" height="100" relative="1" as="geometry">
              <Array as="points" />
            </mxGeometry>
          </mxCell>
        </UserObject>
        <mxCell id="prS6bFnsUC1DCDPSDWHU-21" value="&amp;lt;&amp;lt;Exclude&amp;gt;&amp;gt;" style="text;html=1;resizable=0;labelBackgroundColor=none;align=center;verticalAlign=middle;fontStyle=1;fontColor=#383a3d;fontSize=10.2;" vertex="1" parent="prS6bFnsUC1DCDPSDWHU-20">
          <mxGeometry relative="1" as="geometry" />
        </mxCell>
        <UserObject label="Secondary Actors" lucidchartObjectId="i5J2YbLgbhjA" id="prS6bFnsUC1DCDPSDWHU-22">
          <mxCell style="html=1;overflow=block;blockSpacing=1;whiteSpace=wrap;fontSize=31.8;fontColor=#8b412b;fontStyle=1;spacing=0;fillColor=#ffffff;strokeWidth=1.5;strokeColor=none;" vertex="1" parent="1">
            <mxGeometry x="784" y="-672" width="167" height="17" as="geometry" />
          </mxCell>
        </UserObject>
        <UserObject label="KNAPP Chat" lucidchartObjectId="i5J2O0anMHXu" id="prS6bFnsUC1DCDPSDWHU-23">
          <mxCell style="html=1;overflow=block;blockSpacing=1;whiteSpace=wrap;ellipse;fontSize=20.2;fontColor=#383a3d;fontStyle=1;spacing=3.8;strokeColor=#383a3d;strokeOpacity=100;fillOpacity=100;rounded=1;absoluteArcSize=1;arcSize=9;fillColor=#c4c4c4;strokeWidth=5.3;" vertex="1" parent="1">
            <mxGeometry x="-530" y="148" width="147" height="112" as="geometry" />
          </mxCell>
        </UserObject>
        <UserObject label="KNPP Mail" lucidchartObjectId="i5J2vXMG-BbY" id="prS6bFnsUC1DCDPSDWHU-24">
          <mxCell style="html=1;overflow=block;blockSpacing=1;whiteSpace=wrap;ellipse;fontSize=20.2;fontColor=#383a3d;fontStyle=1;spacing=3.8;strokeColor=#383a3d;strokeOpacity=100;fillOpacity=100;rounded=1;absoluteArcSize=1;arcSize=9;fillColor=#c4c4c4;strokeWidth=5.3;" vertex="1" parent="1">
            <mxGeometry x="-342" y="148" width="123" height="112" as="geometry" />
          </mxCell>
        </UserObject>
        <UserObject label="" lucidchartObjectId="i5J2959PkfiB" id="prS6bFnsUC1DCDPSDWHU-25">
          <mxCell style="html=1;jettySize=18;whiteSpace=wrap;fontSize=13;strokeColor=#383a3d;strokeOpacity=100;dashed=1;fixDash=1;dashPattern=6 5;strokeWidth=2.3;rounded=0;startArrow=none;endArrow=block;endFill=1;entryX=0.5;entryY=-0.023;entryPerimeter=0;exitX=0.5;exitY=-0.023;exitDx=0;exitDy=0;exitPerimeter=0;" edge="1" parent="1" source="prS6bFnsUC1DCDPSDWHU-23">
            <mxGeometry width="100" height="100" relative="1" as="geometry">
              <Array as="points" />
              <mxPoint x="-127" y="-166" as="targetPoint" />
            </mxGeometry>
          </mxCell>
        </UserObject>
        <mxCell id="prS6bFnsUC1DCDPSDWHU-26" value="&amp;lt;&amp;lt;Include&amp;gt;&amp;gt;" style="text;html=1;resizable=0;labelBackgroundColor=none;align=center;verticalAlign=middle;fontStyle=1;fontColor=#383a3d;fontSize=11;fillColor=none;strokeColor=#000000;" vertex="1" parent="prS6bFnsUC1DCDPSDWHU-25">
          <mxGeometry x="0.3216789903860193" relative="1" as="geometry">
            <mxPoint x="-162" y="158" as="offset" />
          </mxGeometry>
        </mxCell>
        <UserObject label="" lucidchartObjectId="i5J2a6kCOsBc" id="prS6bFnsUC1DCDPSDWHU-27">
          <mxCell style="html=1;jettySize=18;whiteSpace=wrap;fontSize=13;strokeColor=#383a3d;strokeOpacity=100;dashed=1;fixDash=1;dashPattern=6 5;strokeWidth=2.3;rounded=0;startArrow=none;endArrow=block;endFill=1;exitX=0.5;exitY=-0.023;exitPerimeter=0;entryX=0.5;entryY=1.009;entryPerimeter=0;exitDx=0;exitDy=0;entryDx=0;entryDy=0;" edge="1" parent="1" source="prS6bFnsUC1DCDPSDWHU-24" target="prS6bFnsUC1DCDPSDWHU-6">
            <mxGeometry width="100" height="100" relative="1" as="geometry">
              <Array as="points" />
            </mxGeometry>
          </mxCell>
        </UserObject>
        <mxCell id="prS6bFnsUC1DCDPSDWHU-28" value="&amp;lt;&amp;lt;Include&amp;gt;&amp;gt;" style="text;html=1;resizable=0;labelBackgroundColor=none;align=center;verticalAlign=middle;fontStyle=1;fontColor=#383a3d;fontSize=11;fillColor=none;strokeColor=#000000;" vertex="1" parent="prS6bFnsUC1DCDPSDWHU-27">
          <mxGeometry x="0.3216789903860193" relative="1" as="geometry">
            <mxPoint x="-92" y="179" as="offset" />
          </mxGeometry>
        </mxCell>
        <UserObject label="Account" lucidchartObjectId="i5J2d4w-y.1x" id="prS6bFnsUC1DCDPSDWHU-29">
          <mxCell style="html=1;overflow=block;blockSpacing=1;whiteSpace=wrap;ellipse;fontSize=20.2;fontColor=#383a3d;fontStyle=1;spacing=3.8;strokeColor=#383a3d;strokeOpacity=100;fillOpacity=100;rounded=1;absoluteArcSize=1;arcSize=9;fillColor=#c4c4c4;strokeWidth=5.3;" vertex="1" parent="1">
            <mxGeometry x="-177" y="151" width="123" height="112" as="geometry" />
          </mxCell>
        </UserObject>
        <UserObject label="" lucidchartObjectId="i5J2z5Q9Dvb~" id="prS6bFnsUC1DCDPSDWHU-30">
          <mxCell style="html=1;jettySize=18;whiteSpace=wrap;fontSize=13;strokeColor=#383a3d;strokeOpacity=100;dashed=1;fixDash=1;dashPattern=6 5;strokeWidth=2.3;rounded=0;startArrow=none;endArrow=block;endFill=1;exitX=0.5;exitY=-0.023;exitPerimeter=0;entryX=0.5;entryY=1.009;entryPerimeter=0;exitDx=0;exitDy=0;entryDx=0;entryDy=0;" edge="1" parent="1" source="prS6bFnsUC1DCDPSDWHU-29" target="prS6bFnsUC1DCDPSDWHU-6">
            <mxGeometry width="100" height="100" relative="1" as="geometry">
              <Array as="points" />
            </mxGeometry>
          </mxCell>
        </UserObject>
        <mxCell id="prS6bFnsUC1DCDPSDWHU-31" value="&amp;lt;&amp;lt;Include&amp;gt;&amp;gt;" style="text;html=1;resizable=0;labelBackgroundColor=none;align=center;verticalAlign=middle;fontStyle=1;fontColor=#383a3d;fontSize=11;" vertex="1" parent="prS6bFnsUC1DCDPSDWHU-30">
          <mxGeometry x="0.3216789903860193" relative="1" as="geometry">
            <mxPoint x="7" y="64" as="offset" />
          </mxGeometry>
        </mxCell>
        <UserObject label="Management" lucidchartObjectId="i5J237Z4ox96" id="prS6bFnsUC1DCDPSDWHU-32">
          <mxCell style="html=1;overflow=block;blockSpacing=1;whiteSpace=wrap;ellipse;fontSize=20.2;fontColor=#383a3d;fontStyle=1;spacing=3.8;strokeColor=#383a3d;strokeOpacity=100;fillOpacity=100;rounded=1;absoluteArcSize=1;arcSize=9;fillColor=#c4c4c4;strokeWidth=5.3;" vertex="1" parent="1">
            <mxGeometry x="7" y="151" width="165" height="112" as="geometry" />
          </mxCell>
        </UserObject>
        <UserObject label="Registration" lucidchartObjectId="i5J2qPjN0-o." id="prS6bFnsUC1DCDPSDWHU-33">
          <mxCell style="html=1;overflow=block;blockSpacing=1;whiteSpace=wrap;ellipse;fontSize=20.2;fontColor=#383a3d;fontStyle=1;spacing=3.8;strokeColor=#383a3d;strokeOpacity=100;fillOpacity=100;rounded=1;absoluteArcSize=1;arcSize=9;fillColor=#c4c4c4;strokeWidth=5.3;" vertex="1" parent="1">
            <mxGeometry x="217" y="148" width="138" height="112" as="geometry" />
          </mxCell>
        </UserObject>
        <UserObject label="" lucidchartObjectId="i5J2N~2l2Axu" id="prS6bFnsUC1DCDPSDWHU-36">
          <mxCell style="html=1;jettySize=18;whiteSpace=wrap;fontSize=13;strokeColor=#383a3d;strokeOpacity=100;dashed=1;fixDash=1;dashPattern=6 5;strokeWidth=2.3;rounded=0;startArrow=none;endArrow=block;endFill=1;exitX=0.5;exitY=-0.023;exitPerimeter=0;entryX=0.5;entryY=1.009;entryPerimeter=0;exitDx=0;exitDy=0;entryDx=0;entryDy=0;" edge="1" parent="1" source="prS6bFnsUC1DCDPSDWHU-33" target="prS6bFnsUC1DCDPSDWHU-6">
            <mxGeometry width="100" height="100" relative="1" as="geometry">
              <Array as="points" />
            </mxGeometry>
          </mxCell>
        </UserObject>
        <mxCell id="prS6bFnsUC1DCDPSDWHU-37" value="&amp;lt;&amp;lt;Exclude&amp;gt;&amp;gt;" style="text;html=1;resizable=0;labelBackgroundColor=none;align=center;verticalAlign=middle;fontStyle=1;fontColor=#383a3d;fontSize=11;fillColor=none;strokeColor=#000000;" vertex="1" parent="prS6bFnsUC1DCDPSDWHU-36">
          <mxGeometry x="0.3216789903860193" relative="1" as="geometry">
            <mxPoint x="-6" y="-11" as="offset" />
          </mxGeometry>
        </mxCell>
        <UserObject label="Library" lucidchartObjectId="i5J2pRKTkdCp" id="prS6bFnsUC1DCDPSDWHU-38">
          <mxCell style="html=1;overflow=block;blockSpacing=1;whiteSpace=wrap;ellipse;fontSize=20.2;fontColor=#383a3d;fontStyle=1;spacing=3.8;strokeColor=#383a3d;strokeOpacity=100;fillOpacity=100;rounded=1;absoluteArcSize=1;arcSize=9;fillColor=#c4c4c4;strokeWidth=5.3;" vertex="1" parent="1">
            <mxGeometry x="384" y="148" width="165" height="112" as="geometry" />
          </mxCell>
        </UserObject>
        <UserObject label="" lucidchartObjectId="i5J2R1GfjksS" id="prS6bFnsUC1DCDPSDWHU-39">
          <mxCell style="html=1;jettySize=18;whiteSpace=wrap;fontSize=13;strokeColor=#383a3d;strokeOpacity=100;dashed=1;fixDash=1;dashPattern=6 5;strokeWidth=2.3;rounded=0;startArrow=none;endArrow=block;endFill=1;exitX=0.5;exitY=-0.023;exitPerimeter=0;entryX=0.5;entryY=1.009;entryPerimeter=0;exitDx=0;exitDy=0;entryDx=0;entryDy=0;" edge="1" parent="1" source="prS6bFnsUC1DCDPSDWHU-38" target="prS6bFnsUC1DCDPSDWHU-6">
            <mxGeometry width="100" height="100" relative="1" as="geometry">
              <Array as="points" />
            </mxGeometry>
          </mxCell>
        </UserObject>
        <mxCell id="prS6bFnsUC1DCDPSDWHU-40" value="&amp;lt;&amp;lt;Include&amp;gt;&amp;gt;" style="text;html=1;resizable=0;labelBackgroundColor=none;align=center;verticalAlign=middle;fontStyle=1;fontColor=#383a3d;fontSize=11;fillColor=none;strokeColor=#000000;" vertex="1" parent="prS6bFnsUC1DCDPSDWHU-39">
          <mxGeometry x="0.3216789903860193" relative="1" as="geometry">
            <mxPoint x="205" y="109" as="offset" />
          </mxGeometry>
        </mxCell>
        <UserObject label="" lucidchartObjectId="i5J23qIOswuh" id="prS6bFnsUC1DCDPSDWHU-41">
          <mxCell style="html=1;jettySize=18;whiteSpace=wrap;fontSize=13;strokeColor=#E45E2D;strokeWidth=3;rounded=0;startArrow=none;endArrow=none;exitX=0.55;exitY=0.5;exitPerimeter=0;" edge="1" parent="1" source="prS6bFnsUC1DCDPSDWHU-11">
            <mxGeometry width="100" height="100" relative="1" as="geometry">
              <Array as="points" />
              <mxPoint x="127" y="-306" as="targetPoint" />
            </mxGeometry>
          </mxCell>
        </UserObject>
        <UserObject label="" lucidchartObjectId="i5J2FTPE8BJu" id="prS6bFnsUC1DCDPSDWHU-42">
          <mxCell style="html=1;jettySize=18;whiteSpace=wrap;fontSize=13;strokeColor=#E45E2D;strokeWidth=1.5;rounded=0;startArrow=none;endArrow=none;exitX=0.455;exitY=0.434;exitPerimeter=0;" edge="1" parent="1" source="prS6bFnsUC1DCDPSDWHU-7">
            <mxGeometry width="100" height="100" relative="1" as="geometry">
              <Array as="points" />
              <mxPoint x="-606" y="145" as="targetPoint" />
            </mxGeometry>
          </mxCell>
        </UserObject>
        <UserObject label="" lucidchartObjectId="i5J2h75VERpc" id="prS6bFnsUC1DCDPSDWHU-43">
          <mxCell style="html=1;jettySize=18;whiteSpace=wrap;fontSize=13;strokeColor=#E45E2D;strokeWidth=1.5;rounded=0;startArrow=none;endArrow=none;exitX=0.455;exitY=0.434;exitPerimeter=0;entryX=0.5;entryY=-0.023;entryPerimeter=0;" edge="1" parent="1" source="prS6bFnsUC1DCDPSDWHU-7" target="prS6bFnsUC1DCDPSDWHU-23">
            <mxGeometry width="100" height="100" relative="1" as="geometry">
              <Array as="points" />
            </mxGeometry>
          </mxCell>
        </UserObject>
        <UserObject label="" lucidchartObjectId="i5J2EdDUxlbV" id="prS6bFnsUC1DCDPSDWHU-44">
          <mxCell style="html=1;jettySize=18;whiteSpace=wrap;fontSize=13;strokeColor=#E45E2D;strokeWidth=1.5;rounded=0;startArrow=none;endArrow=none;exitX=0.455;exitY=0.434;exitPerimeter=0;entryX=0.5;entryY=-0.023;entryPerimeter=0;" edge="1" parent="1" source="prS6bFnsUC1DCDPSDWHU-7" target="prS6bFnsUC1DCDPSDWHU-24">
            <mxGeometry width="100" height="100" relative="1" as="geometry">
              <Array as="points" />
            </mxGeometry>
          </mxCell>
        </UserObject>
        <UserObject label="" lucidchartObjectId="i5J20LLy2u1y" id="prS6bFnsUC1DCDPSDWHU-45">
          <mxCell style="html=1;jettySize=18;whiteSpace=wrap;fontSize=13;strokeColor=#E45E2D;strokeWidth=1.5;rounded=0;startArrow=none;endArrow=none;exitX=0.455;exitY=0.434;exitPerimeter=0;entryX=0.5;entryY=-0.023;entryPerimeter=0;" edge="1" parent="1" source="prS6bFnsUC1DCDPSDWHU-7" target="prS6bFnsUC1DCDPSDWHU-29">
            <mxGeometry width="100" height="100" relative="1" as="geometry">
              <Array as="points" />
            </mxGeometry>
          </mxCell>
        </UserObject>
        <UserObject label="" lucidchartObjectId="i5J2B.jEi_JZ" id="prS6bFnsUC1DCDPSDWHU-46">
          <mxCell style="html=1;jettySize=18;whiteSpace=wrap;fontSize=13;strokeColor=#E45E2D;strokeWidth=1.5;rounded=0;startArrow=none;endArrow=none;exitX=0.455;exitY=0.434;exitPerimeter=0;" edge="1" parent="1" source="prS6bFnsUC1DCDPSDWHU-7">
            <mxGeometry width="100" height="100" relative="1" as="geometry">
              <Array as="points" />
              <mxPoint x="89" y="149" as="targetPoint" />
            </mxGeometry>
          </mxCell>
        </UserObject>
        <UserObject label="" lucidchartObjectId="i5J2Q4Ud7NeZ" id="prS6bFnsUC1DCDPSDWHU-47">
          <mxCell style="html=1;jettySize=18;whiteSpace=wrap;fontSize=13;strokeColor=#E45E2D;strokeWidth=1.5;rounded=0;startArrow=none;endArrow=none;exitX=0.455;exitY=0.434;exitPerimeter=0;entryX=0.5;entryY=-0.023;entryPerimeter=0;" edge="1" parent="1" source="prS6bFnsUC1DCDPSDWHU-7" target="prS6bFnsUC1DCDPSDWHU-33">
            <mxGeometry width="100" height="100" relative="1" as="geometry">
              <Array as="points" />
            </mxGeometry>
          </mxCell>
        </UserObject>
        <UserObject label="" lucidchartObjectId="i5J28pZg36AV" id="prS6bFnsUC1DCDPSDWHU-48">
          <mxCell style="html=1;jettySize=18;whiteSpace=wrap;fontSize=13;strokeColor=#E45E2D;strokeWidth=1.5;rounded=0;startArrow=none;endArrow=none;exitX=0.455;exitY=0.434;exitPerimeter=0;entryX=0.5;entryY=-0.023;entryPerimeter=0;" edge="1" parent="1" source="prS6bFnsUC1DCDPSDWHU-7" target="prS6bFnsUC1DCDPSDWHU-38">
            <mxGeometry width="100" height="100" relative="1" as="geometry">
              <Array as="points" />
            </mxGeometry>
          </mxCell>
        </UserObject>
        <UserObject label="" lucidchartObjectId="i5J28TduJRUy" id="prS6bFnsUC1DCDPSDWHU-49">
          <mxCell style="html=1;jettySize=18;whiteSpace=wrap;fontSize=13;strokeColor=#383a3d;strokeOpacity=100;strokeWidth=1.5;rounded=0;startArrow=none;endArrow=none;exitX=0.455;exitY=0.434;exitPerimeter=0;entryX=0.5;entryY=-0.023;entryPerimeter=0;" edge="1" parent="1" source="prS6bFnsUC1DCDPSDWHU-9" target="prS6bFnsUC1DCDPSDWHU-12">
            <mxGeometry width="100" height="100" relative="1" as="geometry">
              <Array as="points" />
            </mxGeometry>
          </mxCell>
        </UserObject>
        <UserObject label="" lucidchartObjectId="i5J2JWnNAy_U" id="prS6bFnsUC1DCDPSDWHU-50">
          <mxCell style="html=1;jettySize=18;whiteSpace=wrap;fontSize=13;strokeColor=#383a3d;strokeOpacity=100;strokeWidth=1.5;rounded=0;startArrow=none;endArrow=none;exitX=0.455;exitY=0.434;exitPerimeter=0;entryX=0.5;entryY=-0.023;entryPerimeter=0;" edge="1" parent="1" source="prS6bFnsUC1DCDPSDWHU-9" target="prS6bFnsUC1DCDPSDWHU-23">
            <mxGeometry width="100" height="100" relative="1" as="geometry">
              <Array as="points" />
            </mxGeometry>
          </mxCell>
        </UserObject>
        <UserObject label="" lucidchartObjectId="i5J2biyz31y7" id="prS6bFnsUC1DCDPSDWHU-51">
          <mxCell style="html=1;jettySize=18;whiteSpace=wrap;fontSize=13;strokeColor=#383a3d;strokeOpacity=100;strokeWidth=1.5;rounded=0;startArrow=none;endArrow=none;exitX=0.455;exitY=0.434;exitPerimeter=0;entryX=0.5;entryY=-0.023;entryPerimeter=0;" edge="1" parent="1" source="prS6bFnsUC1DCDPSDWHU-9" target="prS6bFnsUC1DCDPSDWHU-24">
            <mxGeometry width="100" height="100" relative="1" as="geometry">
              <Array as="points" />
            </mxGeometry>
          </mxCell>
        </UserObject>
        <UserObject label="" lucidchartObjectId="i5J2wN3xrm8w" id="prS6bFnsUC1DCDPSDWHU-52">
          <mxCell style="html=1;jettySize=18;whiteSpace=wrap;fontSize=13;strokeColor=#383a3d;strokeOpacity=100;strokeWidth=1.5;rounded=0;startArrow=none;endArrow=none;exitX=0.455;exitY=0.434;exitPerimeter=0;entryX=0.5;entryY=-0.023;entryPerimeter=0;" edge="1" parent="1" source="prS6bFnsUC1DCDPSDWHU-9" target="prS6bFnsUC1DCDPSDWHU-29">
            <mxGeometry width="100" height="100" relative="1" as="geometry">
              <Array as="points" />
            </mxGeometry>
          </mxCell>
        </UserObject>
        <UserObject label="" lucidchartObjectId="i5J2CR1wi0wy" id="prS6bFnsUC1DCDPSDWHU-53">
          <mxCell style="html=1;jettySize=18;whiteSpace=wrap;fontSize=13;strokeOpacity=100;strokeWidth=1.5;rounded=0;startArrow=none;endArrow=none;exitX=0.455;exitY=0.434;exitPerimeter=0;" edge="1" parent="1" source="prS6bFnsUC1DCDPSDWHU-10">
            <mxGeometry width="100" height="100" relative="1" as="geometry">
              <Array as="points" />
              <mxPoint x="-606" y="145" as="targetPoint" />
            </mxGeometry>
          </mxCell>
        </UserObject>
        <UserObject label="" lucidchartObjectId="i5J2bKXR-Usn" id="prS6bFnsUC1DCDPSDWHU-54">
          <mxCell style="html=1;jettySize=18;whiteSpace=wrap;fontSize=13;strokeOpacity=100;strokeWidth=1.5;rounded=0;startArrow=none;endArrow=none;exitX=0.455;exitY=0.434;exitPerimeter=0;entryX=1.018;entryY=0.5;entryPerimeter=0;" edge="1" parent="1" source="prS6bFnsUC1DCDPSDWHU-10" target="prS6bFnsUC1DCDPSDWHU-23">
            <mxGeometry width="100" height="100" relative="1" as="geometry">
              <Array as="points" />
            </mxGeometry>
          </mxCell>
        </UserObject>
        <UserObject label="" lucidchartObjectId="i5J2eihJCy0q" id="prS6bFnsUC1DCDPSDWHU-55">
          <mxCell style="html=1;jettySize=18;whiteSpace=wrap;fontSize=13;strokeOpacity=100;strokeWidth=1.5;rounded=0;startArrow=none;endArrow=none;exitX=0.455;exitY=0.434;exitPerimeter=0;entryX=1.021;entryY=0.5;entryPerimeter=0;" edge="1" parent="1" source="prS6bFnsUC1DCDPSDWHU-10" target="prS6bFnsUC1DCDPSDWHU-24">
            <mxGeometry width="100" height="100" relative="1" as="geometry">
              <Array as="points" />
            </mxGeometry>
          </mxCell>
        </UserObject>
        <UserObject label="" lucidchartObjectId="i5J26~H22z9V" id="prS6bFnsUC1DCDPSDWHU-56">
          <mxCell style="html=1;jettySize=18;whiteSpace=wrap;fontSize=13;strokeOpacity=100;strokeWidth=1.5;rounded=0;startArrow=none;endArrow=none;exitX=0.455;exitY=0.434;exitPerimeter=0;entryX=1.016;entryY=0.5;entryPerimeter=0;" edge="1" parent="1" source="prS6bFnsUC1DCDPSDWHU-10" target="prS6bFnsUC1DCDPSDWHU-32">
            <mxGeometry width="100" height="100" relative="1" as="geometry">
              <Array as="points" />
            </mxGeometry>
          </mxCell>
        </UserObject>
        <UserObject label="" lucidchartObjectId="i5J2BAo3i5AI" id="prS6bFnsUC1DCDPSDWHU-57">
          <mxCell style="html=1;jettySize=18;whiteSpace=wrap;fontSize=13;strokeColor=#ba23f6;strokeOpacity=100;strokeWidth=1.5;rounded=0;startArrow=none;endArrow=none;exitX=0.455;exitY=0.434;exitPerimeter=0;entryX=0.5;entryY=1.023;entryPerimeter=0;" edge="1" parent="1" source="prS6bFnsUC1DCDPSDWHU-11" target="prS6bFnsUC1DCDPSDWHU-12">
            <mxGeometry width="100" height="100" relative="1" as="geometry">
              <Array as="points" />
            </mxGeometry>
          </mxCell>
        </UserObject>
        <UserObject label="" lucidchartObjectId="i5J2BX~J.CJJ" id="prS6bFnsUC1DCDPSDWHU-58">
          <mxCell style="html=1;jettySize=18;whiteSpace=wrap;fontSize=13;strokeColor=#ba23f6;strokeOpacity=100;strokeWidth=1.5;rounded=0;startArrow=none;endArrow=none;exitX=0.455;exitY=0.434;exitPerimeter=0;entryX=0.5;entryY=1.023;entryPerimeter=0;" edge="1" parent="1" source="prS6bFnsUC1DCDPSDWHU-11" target="prS6bFnsUC1DCDPSDWHU-23">
            <mxGeometry width="100" height="100" relative="1" as="geometry">
              <Array as="points" />
            </mxGeometry>
          </mxCell>
        </UserObject>
        <UserObject label="" lucidchartObjectId="i5J2EptMp3W8" id="prS6bFnsUC1DCDPSDWHU-59">
          <mxCell style="html=1;jettySize=18;whiteSpace=wrap;fontSize=13;strokeColor=#ba23f6;strokeOpacity=100;strokeWidth=1.5;rounded=0;startArrow=none;endArrow=none;exitX=0.455;exitY=0.434;exitPerimeter=0;entryX=0.5;entryY=1.023;entryPerimeter=0;" edge="1" parent="1" source="prS6bFnsUC1DCDPSDWHU-11" target="prS6bFnsUC1DCDPSDWHU-24">
            <mxGeometry width="100" height="100" relative="1" as="geometry">
              <Array as="points" />
            </mxGeometry>
          </mxCell>
        </UserObject>
        <UserObject label="" lucidchartObjectId="i5J2KTD7G8u~" id="prS6bFnsUC1DCDPSDWHU-60">
          <mxCell style="html=1;jettySize=18;whiteSpace=wrap;fontSize=13;strokeColor=#ba23f6;strokeOpacity=100;strokeWidth=1.5;rounded=0;startArrow=none;endArrow=none;exitX=0.455;exitY=0.434;exitPerimeter=0;entryX=0.5;entryY=1.023;entryPerimeter=0;" edge="1" parent="1" source="prS6bFnsUC1DCDPSDWHU-11" target="prS6bFnsUC1DCDPSDWHU-33">
            <mxGeometry width="100" height="100" relative="1" as="geometry">
              <Array as="points" />
            </mxGeometry>
          </mxCell>
        </UserObject>
        <UserObject label="" lucidchartObjectId="i5J2IbUfcROh" id="prS6bFnsUC1DCDPSDWHU-61">
          <mxCell style="html=1;jettySize=18;whiteSpace=wrap;fontSize=13;strokeOpacity=100;strokeWidth=1.5;rounded=0;startArrow=none;endArrow=none;exitX=0.455;exitY=0.434;exitPerimeter=0;entryX=0.5;entryY=1.023;entryPerimeter=0;" edge="1" parent="1" source="prS6bFnsUC1DCDPSDWHU-10" target="prS6bFnsUC1DCDPSDWHU-33">
            <mxGeometry width="100" height="100" relative="1" as="geometry">
              <Array as="points" />
            </mxGeometry>
          </mxCell>
        </UserObject>
        <UserObject label="View Attendance" lucidchartObjectId="i5J23IP7olYw" id="prS6bFnsUC1DCDPSDWHU-62">
          <mxCell style="html=1;overflow=block;blockSpacing=1;whiteSpace=wrap;ellipse;fontSize=20.2;spacing=3.8;strokeColor=#383a3d;strokeOpacity=100;fillOpacity=100;rounded=1;absoluteArcSize=1;arcSize=9;fillColor=#c4c4c4;strokeWidth=5.3;" vertex="1" parent="1">
            <mxGeometry x="-611" y="393" width="160" height="84" as="geometry" />
          </mxCell>
        </UserObject>
        <UserObject label="View Assignments/  Result" lucidchartObjectId="i5J2re25NwTS" id="prS6bFnsUC1DCDPSDWHU-63">
          <mxCell style="html=1;overflow=block;blockSpacing=1;whiteSpace=wrap;ellipse;fontSize=20.2;spacing=3.8;strokeColor=#383a3d;strokeOpacity=100;fillOpacity=100;rounded=1;absoluteArcSize=1;arcSize=9;fillColor=#c4c4c4;strokeWidth=5.3;" vertex="1" parent="1">
            <mxGeometry x="-341" y="382" width="225" height="90" as="geometry" />
          </mxCell>
        </UserObject>
        <UserObject label="Issue/ View Books" lucidchartObjectId="i5J2BTEaIoMJ" id="prS6bFnsUC1DCDPSDWHU-64">
          <mxCell style="html=1;overflow=block;blockSpacing=1;whiteSpace=wrap;ellipse;fontSize=20.2;spacing=3.8;strokeColor=#383a3d;strokeOpacity=100;fillOpacity=100;rounded=1;absoluteArcSize=1;arcSize=9;fillColor=#c4c4c4;strokeWidth=5.3;" vertex="1" parent="1">
            <mxGeometry x="64" y="393" width="169" height="84" as="geometry" />
          </mxCell>
        </UserObject>
        <UserObject label="" lucidchartObjectId="i5J2TgoQMBMn" id="prS6bFnsUC1DCDPSDWHU-65">
          <mxCell style="html=1;jettySize=18;whiteSpace=wrap;fontSize=13;strokeColor=#635dff;strokeOpacity=100;dashed=1;fixDash=1;dashPattern=6 5;strokeWidth=3.8;rounded=0;startArrow=none;endArrow=block;endFill=1;exitX=0.5;exitY=-0.031;exitPerimeter=0;entryX=0.5;entryY=1.009;entryPerimeter=0;exitDx=0;exitDy=0;entryDx=0;entryDy=0;" edge="1" parent="1" source="prS6bFnsUC1DCDPSDWHU-62" target="prS6bFnsUC1DCDPSDWHU-6">
            <mxGeometry width="100" height="100" relative="1" as="geometry">
              <Array as="points" />
            </mxGeometry>
          </mxCell>
        </UserObject>
        <mxCell id="prS6bFnsUC1DCDPSDWHU-66" value="&amp;lt;&amp;lt;Include&amp;gt;&amp;gt;" style="text;html=1;resizable=0;labelBackgroundColor=none;align=center;verticalAlign=middle;fontStyle=1;fontColor=#4d0066;fontSize=11;fillColor=none;strokeColor=#000000;" vertex="1" parent="prS6bFnsUC1DCDPSDWHU-65">
          <mxGeometry x="0.7835898043603065" relative="1" as="geometry">
            <mxPoint x="-170" y="234" as="offset" />
          </mxGeometry>
        </mxCell>
        <mxCell id="prS6bFnsUC1DCDPSDWHU-75" style="edgeStyle=orthogonalEdgeStyle;rounded=0;orthogonalLoop=1;jettySize=auto;html=1;exitX=0;exitY=0;exitDx=0;exitDy=0;fontSize=6;" edge="1" parent="prS6bFnsUC1DCDPSDWHU-65" source="prS6bFnsUC1DCDPSDWHU-66" target="prS6bFnsUC1DCDPSDWHU-3">
          <mxGeometry relative="1" as="geometry" />
        </mxCell>
        <UserObject label="" lucidchartObjectId="i5J2g9MKg2hb" id="prS6bFnsUC1DCDPSDWHU-69">
          <mxCell style="html=1;jettySize=18;whiteSpace=wrap;fontSize=13;strokeColor=#635dff;strokeOpacity=100;dashed=1;fixDash=1;dashPattern=6 5;strokeWidth=3.8;rounded=0;startArrow=none;endArrow=block;endFill=1;exitX=0.5;exitY=-0.031;exitPerimeter=0;entryX=0.5;entryY=1.009;entryPerimeter=0;exitDx=0;exitDy=0;entryDx=0;entryDy=0;" edge="1" parent="1" source="prS6bFnsUC1DCDPSDWHU-64" target="prS6bFnsUC1DCDPSDWHU-6">
            <mxGeometry width="100" height="100" relative="1" as="geometry">
              <Array as="points" />
            </mxGeometry>
          </mxCell>
        </UserObject>
        <mxCell id="prS6bFnsUC1DCDPSDWHU-70" value="&amp;lt;&amp;lt;Include&amp;gt;&amp;gt;" style="text;html=1;resizable=0;labelBackgroundColor=none;align=center;verticalAlign=middle;fontStyle=1;fontColor=#4d0066;fontSize=11;fillColor=none;strokeColor=#000000;" vertex="1" parent="prS6bFnsUC1DCDPSDWHU-69">
          <mxGeometry x="0.6175565223829236" relative="1" as="geometry">
            <mxPoint x="81" y="168" as="offset" />
          </mxGeometry>
        </mxCell>
        <UserObject label="Fees Payment" lucidchartObjectId="48J2raxmJeUz" id="prS6bFnsUC1DCDPSDWHU-71">
          <mxCell style="html=1;overflow=block;blockSpacing=1;whiteSpace=wrap;ellipse;fontSize=20.2;spacing=3.8;strokeColor=#383a3d;strokeOpacity=100;fillOpacity=100;rounded=1;absoluteArcSize=1;arcSize=9;fillColor=#c4c4c4;strokeWidth=5.3;" vertex="1" parent="1">
            <mxGeometry x="334" y="388" width="169" height="84" as="geometry" />
          </mxCell>
        </UserObject>
        <UserObject label="" lucidchartObjectId="48J2g5id6k8O" id="prS6bFnsUC1DCDPSDWHU-72">
          <mxCell style="html=1;jettySize=18;whiteSpace=wrap;fontSize=13;strokeColor=#635dff;strokeOpacity=100;dashed=1;fixDash=1;dashPattern=6 5;strokeWidth=3.8;rounded=0;startArrow=none;endArrow=block;endFill=1;entryX=0.5;entryY=-0.031;entryPerimeter=0;exitX=0.5;exitY=-0.031;exitDx=0;exitDy=0;exitPerimeter=0;" edge="1" parent="1" source="prS6bFnsUC1DCDPSDWHU-71">
            <mxGeometry width="100" height="100" relative="1" as="geometry">
              <Array as="points" />
              <mxPoint x="-120" y="-157" as="targetPoint" />
            </mxGeometry>
          </mxCell>
        </UserObject>
        <mxCell id="prS6bFnsUC1DCDPSDWHU-73" value="&amp;lt;&amp;lt;Include&amp;gt;&amp;gt;" style="text;html=1;resizable=0;labelBackgroundColor=none;align=center;verticalAlign=middle;fontStyle=1;fontColor=#4d0066;fontSize=11;fillColor=none;strokeColor=#000000;" vertex="1" parent="prS6bFnsUC1DCDPSDWHU-72">
          <mxGeometry x="0.12876214900471972" relative="1" as="geometry" />
        </mxCell>
      </root>
    </mxGraphModel>
  </diagram>
</mxfile>
